<svg xmlns="http://www.w3.org/2000/svg" xmlns:xlink="http://www.w3.org/1999/xlink" height="800" width="1200" viewBox="-58.0434 -29.82025 503.0428 178.9215"><path fill="#ec1c24" d="M.225 28.694L21.737 13.57h18.827L.225 43.147V28.694"/><path stroke-miterlimit="3.864" fill="none" stroke="#ec1c24" stroke-width=".45" d="M.225 28.694L21.737 13.57h18.827L.225 43.147z"/><path d="M349.15 25.668l-7.729 6.39c-3.343-5.582-8.769-10.11-15.46-10.085-5.208.43-9.874 2.844-12.442 7.396-3.91 5.71-3.61 15.072.675 20.506 3.397 5.736 9.875 7.247 16.138 6.051 3.984-1.068 9.104-5.146 9.406-9.75h-13.105c-.153-2.942.3-5.809 0-8.402h25.212c.094 10.29-3.221 20.104-12.774 25.214-8.221 5.006-21.627 3.801-29.246-2.017-8.948-6.568-12.117-17.286-10.087-27.904 2.039-8.402 9.721-16.552 17.815-19.498 10.735-2.792 22.632-.074 29.586 8.74 1.029.996 1.636 2.054 2.011 3.36" fill="#006f66"/><path d="M349.15 25.668l-7.729 6.39c-3.343-5.582-8.769-10.11-15.46-10.085-5.208.43-9.874 2.844-12.442 7.396-3.91 5.71-3.61 15.072.675 20.506 3.397 5.736 9.875 7.247 16.138 6.051 3.984-1.068 9.104-5.146 9.406-9.75h-13.105c-.153-2.942.3-5.809 0-8.402h25.212c.094 10.29-3.221 20.104-12.774 25.214-8.221 5.006-21.627 3.801-29.246-2.017-8.948-6.568-12.117-17.286-10.087-27.904 2.039-8.402 9.721-16.552 17.815-19.498 10.735-2.792 22.632-.074 29.586 8.74 1.029.996 1.636 2.054 2.011 3.36z" stroke-miterlimit="3.864" fill="none" stroke="#fff" stroke-width=".216"/><path d="M71.489 48.53c.873 3.155 4.038 6.327 7.059 7.06 4.509.473 8.574-.433 10.757-4.035 2.036-3.19 1.887-8.928 2.019-13.45a759.9 759.9 0 010-24.537h10.083c-.273 12.908.028 33.89-1.01 38.994C98.874 58.783 93 64.07 86.616 64.664c-7.926 1.364-16.062.458-21.514-5.71-4.037-4.552-4.339-9.986-4.371-16.139l.339-29.583c3.157.262 6.924-.04 10.419 0V48.53" fill="#006f66"/><path d="M71.489 48.53c.873 3.155 4.038 6.327 7.059 7.06 4.509.473 8.574-.433 10.757-4.035 2.036-3.19 1.887-8.928 2.019-13.45a759.9 759.9 0 010-24.537h10.083c-.273 12.908.028 33.89-1.01 38.994C98.874 58.783 93 64.07 86.616 64.664c-7.926 1.364-16.062.458-21.514-5.71-4.037-4.552-4.339-9.986-4.371-16.139l.339-29.583c3.157.262 6.924-.04 10.419 0z" stroke-miterlimit="3.864" fill="none" stroke="#fff" stroke-width=".216"/><path d="M5.94 24.662L21.737 13.57h18.827L6.276 38.445v17.817L36.531 33.74l9.747-6.388c-.125 6.37-.125 9.843 0 14.792l-32.606 23.87h23.194c7.33-5.72 19.38-10.553 18.825-21.52.555-7.299-3.362-13.94-9.413-17.143 1.23-1.629 2.584-3.438 3.361-5.378 2.389-5.762.88-12.854-3.361-17.142C43.291 1.117 41.03.062 37.538.123c-10.817-.06-20.91.087-31.597 0v24.54" fill="#006f66"/><g transform="translate(-5.228 -12.774)"><defs><path id="a" d="M3 11.868h390.728v121.729H3z"/></defs><clipPath id="b"><use height="100%" width="100%" overflow="visible" xlink:href="#a"/></clipPath><path d="M11.168 37.436l15.797-11.093h18.827L11.504 51.219v17.817l30.255-22.523 9.747-6.388c-.125 6.37-.125 9.843 0 14.792L18.9 78.787h23.194c7.33-5.721 19.38-10.553 18.825-21.52.555-7.299-3.362-13.941-9.413-17.143 1.23-1.629 2.584-3.438 3.361-5.378 2.389-5.762.88-12.854-3.361-17.142-2.987-3.713-5.248-4.768-8.74-4.707-10.817-.061-20.91.087-31.597 0v24.539z" stroke-miterlimit="3.864" clip-path="url(#b)" fill="none" stroke="#fff" stroke-width=".216"/></g><path d="M384.785 18.946c-1.517 3.002-3.929 5.417-6.052 8.07-2.242-2.352-5.409-5.672-9.413-4.035-.965.78-2.622 1.836-3.021 3.362-.656 1.493-.506 3.755.335 5.043 5.486 5.808 15.275 4.902 18.487 13.445 1.61 4.894 1.307 9.873-1.01 14.122-4.458 6.473-11.991 9.04-19.829 7.393-3.914-.77-7.073-2.885-10.422-5.376v-.672l6.048-7.399c3.326 2.711 7.237 5.431 11.769 4.373 1.647-.754 3.005-2.415 3.361-3.699.694-2.038.546-5.059-1.344-6.388-5.189-4.557-13.326-4.1-16.808-11.093-2.388-3.879-2.09-9.615-.342-13.783 2.171-5.494 7.891-8.362 13.452-8.74 5.736-.376 11.009 1.435 14.789 5.377" fill="#fff"/><path d="M384.785 18.946c-1.517 3.002-3.929 5.417-6.052 8.07-2.242-2.352-5.409-5.672-9.413-4.035-.965.78-2.622 1.836-3.021 3.362-.656 1.493-.506 3.755.335 5.043 5.486 5.808 15.275 4.902 18.487 13.445 1.61 4.894 1.307 9.873-1.01 14.122-4.458 6.473-11.991 9.04-19.829 7.393-3.914-.77-7.073-2.885-10.422-5.376v-.672l6.048-7.399c3.326 2.711 7.237 5.431 11.769 4.373 1.647-.754 3.005-2.415 3.361-3.699.694-2.038.546-5.059-1.344-6.388-5.189-4.557-13.326-4.1-16.808-11.093-2.388-3.879-2.09-9.615-.342-13.783 2.171-5.494 7.891-8.362 13.452-8.74 5.736-.376 11.009 1.435 14.789 5.377z" stroke-miterlimit="3.864" fill="#006f66" stroke="#fff" stroke-width=".216"/><path d="M156.873 64.664l-37.312-29.583c-.051-.152-.051-.454-.336-.336v29.92h-10.423V14.24l1.343.335 36.306 28.572h.334V13.904h10.087v50.76" fill="#006f66"/><path d="M156.873 64.664l-37.312-29.583c-.051-.152-.051-.454-.336-.336v29.92h-10.423V14.24l1.343.335 36.306 28.572h.334V13.904h10.087v50.76z" stroke-miterlimit="3.864" fill="none" stroke="#fff" stroke-width=".216"/><path fill="#006f66" d="M224.44 14.24h10.757v50.425H224.44z"/><path stroke-miterlimit="3.864" fill="none" stroke="#fff" stroke-width=".216" d="M224.44 14.24h10.757v50.425H224.44z"/><path d="M214.692 64.664l-37.313-29.583c-.328-.152-.328-.152-.675 0l.338 29.583h-10.42V14.24l1.006.674 36.641 28.572V13.904h10.423v50.76" fill="#006f66"/><path d="M214.692 64.664l-37.313-29.583c-.328-.152-.328-.152-.675 0l.338 29.583h-10.42V14.24l1.006.674 36.641 28.572V13.904h10.423z" stroke-miterlimit="3.864" fill="none" stroke="#fff" stroke-width=".216"/><path fill="#006f66" d="M292.005 64.664L255.03 35.082h-.337v29.92h-10.42V14.574l1.006.34 36.307 28.57.335-29.245h10.084v50.424"/><path stroke-miterlimit="3.864" fill="none" stroke="#fff" stroke-width=".216" d="M244.273 65.001V14.575l1.006.34 36.307 28.57.335-29.245h10.084v50.424L255.03 35.082h-.337v29.92z"/><path fill="#ec1c24" d="M7.957 68.703h115.299V43.147l31.935 25.556h25.884V43.824l31.6 24.88h46.052v-24.88l31.934 24.88H386.8v50.421H7.957V68.703"/><path stroke-miterlimit="3.864" fill="none" stroke="#ec1c24" stroke-width=".312" d="M181.075 68.703V43.824l31.6 24.88h46.052v-24.88l31.934 24.88H386.8v50.421H7.957V68.703h115.299V43.147l31.935 25.556z"/><path d="M138.049 76.093h-11.43v35.975h11.43V97.606c-.11-6.309 1.467-10.998 7.729-11.089 1.868.091 3.381.3 5.043 1.342V75.425h-2.353c-4.416.112-8.196 2.074-10.419 6.385v-5.717" clip-rule="evenodd" fill="#fff" fill-rule="evenodd"/><path d="M105.441 112.738c2.766-.549 5.336-2.114 6.721-4.708h.338v4.038h11.426V76.093H112.5v3.365c-1.836-2.212-4.364-3.648-7.06-4.37v10.76c4.628.058 7.336 3.77 7.396 8.064-.06 4.67-2.768 8.175-7.396 8.067v10.76m-2.352-37.987a.882.882 0 01-.675 0c-9.617.085-16.236 8.91-16.132 19.16-.104 10.343 6.643 19.24 16.132 19.16.293.08.495.075.675 0v-11.426c-3.225-.834-5.058-3.87-5.042-7.733-.016-3.502 1.809-6.655 5.042-7.729V74.752m99.164 1.009c-2.174 1-3.885 2.56-5.378 4.71V62.986l-11.766-8.742v57.823h11.766V93.58c-.157-4.062 1.168-8.21 5.378-8.402v-9.416m2.353 9.414c2.849 1.062 3.268 4.767 3.364 8.402v18.49h11.427v-22.19c-.053-9.018-4.02-15.04-12.098-15.126-1.088.085-1.999.173-2.693.336v10.088m36.307 27.896c9.742-.46 18.138-7.319 18.151-19.159-.017-11.66-8.421-18.436-18.151-18.824v10.76c3.782.722 6.033 4.16 6.05 8.064-.017 4.268-2.271 7.547-6.05 8.067v11.092m-2.693-11.092c-3.775-.53-6.025-3.805-6.048-8.067.022-3.902 2.272-7.34 6.048-8.065l.34-11.095c-10.058.614-18.467 7.482-18.489 19.16.022 11.9 8.464 18.697 18.149 19.16V101.98m37.315 1.011c-3.62-.589-4.452-3.63-4.37-7.73V76.092h-11.429v21.513c-.129 11.41 6.762 15.23 15.799 15.466v-10.08m2.352 10.081c9.236-.233 16.136-4.043 16.136-15.466V76.093h-11.429V95.26c-.045 4.13-.812 7.103-4.707 7.731v10.082m-109.584-.001c7.09-.185 13.923-4.057 15.797-12.1h-11.091c-1.167 1.967-2.683 2.92-4.706 3.027v9.073" fill="#fff"/><path d="M165.949 104c-3.727-.547-5.659-3.272-5.716-7.734h24.203v-1.343c-.003-11.804-5.893-19.342-16.133-20.17v8.406c2.664.444 4.972 2.556 5.378 5.714H160.57c.507-3.304 2.661-5.205 5.38-5.714v-8.407c-10.109.438-17.131 7.591-17.145 19.16.013 11.9 7.242 18.554 17.145 19.16v-9.073m175.809 9.073c7.258-.185 14.089-4.057 15.795-12.1h-11.088c-1.002 1.967-2.52 2.92-4.707 3.027v9.073" fill="#fff"/><path d="M339.737 104c-3.89-.547-5.825-3.272-5.713-7.734h23.867v-1.343c.162-11.804-5.729-19.342-16.132-20.17v8.406c2.829.444 5.135 2.556 5.715 5.714h-13.45c.676-3.304 2.828-5.205 5.713-5.714v-8.407c-10.274.438-17.291 7.591-17.145 19.16-.146 11.9 7.077 18.554 17.145 19.16v-9.073m-28.236-15.467c-1.585-.314-2.987-1.025-3.026-2.685.039-1.694 2.307-2.325 3.7-2.353 1.888.027 4.346.73 6.049 1.682l4.036-8.072c-3.469-1.639-7.128-2.267-10.759-2.352-7.084.085-14.271 4.01-14.119 12.773-.151 6.506 3.444 8.467 7.06 9.413 1.009.404 2.038.63 3.025 1.011l4.034-9.417" fill="#fff"/><path d="M309.823 98.618c1.035.416 1.78 1.141 1.679 2.354.102 2.023-2.038 2.794-3.361 2.69-2.964.103-6.875-1.718-9.077-3.696l-4.363 9.075c3.984 2.64 8.523 4.111 13.106 4.03 7.519.081 15.27-3.843 15.129-13.442.141-6.508-3.896-9.312-9.417-10.423l-3.696 9.412M41.236 76.093H28.799l16.137 35.975h7.059l1.341-4.37-12.1-31.605m21.514 0h-6.389l-6.385 16.14 4.706 12.44 4.706-12.44 7.731 19.835h7.059l1.346-3.027L62.75 76.093m14.118 29.92l13.11-29.92H78.213L71.489 92.57l5.379 13.443" fill="#fff"/></svg>